#N canvas 8 62 787 827 10;
#X obj 520 97 websocket-server 9001;
#X obj 643 138 tgl 15 0 empty empty connected 19 7 0 10 #fcfcfc #000000 #000000 0 1;
#X obj 643 63 bng 15 250 50 0 empty empty empty 17 7 0 10 #fcfcfc #000000 #000000;
#X obj 149 81 tgl 16 0 empty empty empty 0 -8 0 10 #fcfcfc #000000 #000000 0 1;
#X obj 152 113 metro;
#X obj 149 146 bng 16 250 50 0 empty empty empty 0 -8 0 10 #fcfcfc #000000 #000000;
#X obj 150 208 int 1;
#X floatatom 150 246 5 0 0 0 - - - 0;
#X obj 178 48 loadbang;
#X floatatom 208 121 5 0 0 0 - - - 0;
#X obj 96 115 sel 0;
#X obj 90 149 bng 16 250 50 0 empty empty empty 0 -8 0 10 #fcfcfc #000000 #000000;
#X msg 90 170 -1;
#X obj 35 120 loadbang;
#X obj 227 234 + 1;
#X obj 146 329 + 1;
#X floatatom 145 369 5 0 0 0 - - - 0;
#X obj 145 411 sel 1;
#X obj 145 444 bng 16 250 50 0 empty empty empty 0 -8 0 10 #fcfcfc #000000 #000000;
#X obj 145 465 s One;
#X obj 195 443 bng 16 250 50 0 empty empty empty 0 -8 0 10 #fcfcfc #000000 #000000;
#X obj 244 442 bng 16 250 50 0 empty empty empty 0 -8 0 10 #fcfcfc #000000 #000000;
#X obj 294 443 bng 16 250 50 0 empty empty empty 0 -8 0 10 #fcfcfc #000000 #000000;
#X obj 335 439 bng 16 250 50 0 empty empty empty 0 -8 0 10 #fcfcfc #000000 #000000;
#X obj 384 440 bng 16 250 50 0 empty empty empty 0 -8 0 10 #fcfcfc #000000 #000000;
#X obj 427 441 bng 16 250 50 0 empty empty empty 0 -8 0 10 #fcfcfc #000000 #000000;
#X obj 475 442 bng 16 250 50 0 empty empty empty 0 -8 0 10 #fcfcfc #000000 #000000;
#X obj 195 410 sel 2;
#X obj 244 409 sel 3;
#X obj 294 410 sel 4;
#X obj 335 406 sel 5;
#X obj 384 407 sel 6;
#X obj 427 408 sel 7;
#X obj 475 409 sel 8;
#X obj 244 463 s Three;
#X obj 294 464 s Four;
#X obj 335 460 s Five;
#X obj 427 462 s Seven;
#X obj 475 463 s Eight;
#X msg 190 83 503;
#X obj 376 54 bng 16 250 50 0 empty empty empty 0 -8 0 10 #fcfcfc #000000 #000000;
#X msg 375 108 1 100;
#X floatatom 380 185 5 0 0 0 - - - 0;
#X obj 294 276 *~;
#X obj 289 347 dac~;
#X obj 436 68 del 100;
#X obj 117 551 r One;
#X obj 118 582 bng 16 250 50 0 empty empty empty 0 -8 0 10 #fcfcfc #000000 #000000;
#X obj 155 583 tgl 16 0 empty empty empty 0 -8 0 10 #fcfcfc #000000 #000000 0 1;
#X obj 123 622 spigot;
#X obj 431 807 s sound;
#X obj 149 285 % 6;
#X obj 250 583 bng 16 250 50 0 empty empty empty 0 -8 0 10 #fcfcfc #000000 #000000;
#X obj 287 584 tgl 16 0 empty empty empty 0 -8 0 10 #fcfcfc #000000 #000000 0 1;
#X obj 255 623 spigot;
#X obj 383 587 bng 16 250 50 0 empty empty empty 0 -8 0 10 #fcfcfc #000000 #000000;
#X obj 420 588 tgl 16 0 empty empty empty 0 -8 0 10 #fcfcfc #000000 #000000 0 1;
#X obj 388 627 spigot;
#X obj 500 587 bng 16 250 50 0 empty empty empty 0 -8 0 10 #fcfcfc #000000 #000000;
#X obj 537 588 tgl 16 0 empty empty empty 0 -8 0 10 #fcfcfc #000000 #000000 0 1;
#X obj 505 627 spigot;
#X obj 613 477 bng 16 250 50 0 empty empty empty 0 -8 0 10 #fcfcfc #000000 #000000;
#X obj 650 478 tgl 16 0 empty empty empty 0 -8 0 10 #fcfcfc #000000 #000000 0 1;
#X obj 618 517 spigot;
#X obj 541 350 bng 16 250 50 0 empty empty empty 0 -8 0 10 #fcfcfc #000000 #000000;
#X obj 578 351 tgl 16 0 empty empty empty 0 -8 0 10 #fcfcfc #000000 #000000 0 1;
#X obj 546 390 spigot;
#X obj 249 552 r Two;
#X obj 382 556 r Three;
#X obj 499 556 r Four;
#X obj 612 441 r Five;
#X obj 540 319 r Six;
#X msg 439 120 0 80;
#X obj 376 147 line;
#N canvas 181 258 450 300 messages-to-local 0;
#X obj 154 12 inlet;
#X obj 154 253 outlet;
#X obj 409 255 outlet;
#X obj 154 117 list;
#X obj 154 88 t b a;
#X obj 154 230 list trim;
#X obj 409 209 list trim;
#X obj 154 65 list split 1;
#X obj 409 232 symbol;
#X connect 0 0 7 0;
#X connect 3 0 5 0;
#X connect 4 0 3 0;
#X connect 4 1 6 0;
#X connect 5 0 1 0;
#X connect 6 0 8 0;
#X connect 7 0 4 0;
#X connect 7 1 3 1;
#X connect 8 0 2 0;
#X restore 518 145 pd messages-to-local;
#X obj 517 175 s;
#X obj 384 461 s Six;
#X obj 195 464 s Two;
#X obj 729 67 bng 16 250 50 0 empty empty empty 0 -8 0 10 #fcfcfc #000000 #000000;
#X obj 732 296 clip~ -1 1, f 34;
#X obj 732 344 *~ 1;
#X obj 732 405 dac~;
#X obj 636 8 tgl 16 0 empty empty empty 0 -8 0 10 #fcfcfc #000000 #000000 0 1;
#X floatatom 729 130 5 0 0 0 - - - 0;
#X obj 729 150 mtof;
#X floatatom 729 171 5 0 0 0 - - - 0;
#X obj 729 191 \$1 500;
#X obj 729 212 line;
#X obj 729 88 random 12;
#X obj 732 261 osc~ 40;
#X obj 729 31 metro 4000;
#X obj 729 109 + 24;
#X floatatom 850 481 5 0 0 0 - - - 0;
#X obj 374 26 r sound;
#X obj 291 248 osc~ 66;
#X obj 824 518 t f f;
#X obj 870 546 del;
#X obj 827 369 bng 16 250 50 0 empty empty empty 0 -8 0 10 #fcfcfc #000000 #000000;
#X msg 809 550 1;
#X msg 857 579 0;
#X obj 843 413 random 5000;
#X obj 861 448 + 3000;
#X obj 728 583 s on;
#X obj 779 589 s off;
#X obj 746 318 r on;
#X obj 775 345 r off;
#X obj 115 37 r on;
#X obj 153 38 r off;
#X floatatom 291 119 5 0 0 0 - - - 0;
#X obj 291 139 mtof;
#X floatatom 291 160 5 0 0 0 - - - 0;
#X obj 291 180 \$1 500;
#X obj 291 201 line;
#X obj 291 77 random 24;
#X obj 291 98 + 32;
#X obj 827 341 r socket;
#X obj 875 124 r socket;
#X obj 867 165 tgl 16 0 empty empty empty 0 -8 0 10 #fcfcfc #000000 #000000 0 1;
#X obj 181 532 bng 16 250 50 0 empty empty empty 0 -8 0 10 #fcfcfc #000000 #000000;
#X obj 181 563 random 100;
#X floatatom 181 584 5 0 0 0 - - - 0;
#X obj 181 604 < 50;
#X obj 939 164 bng 16 250 50 0 empty empty empty 0 -8 0 10 #fcfcfc #000000 #000000;
#X obj 939 185 s test;
#X obj 306 519 bng 16 250 50 0 empty empty empty 0 -8 0 10 #fcfcfc #000000 #000000;
#X obj 306 550 random 100;
#X floatatom 306 571 5 0 0 0 - - - 0;
#X obj 306 591 < 50;
#X obj 442 655 bng 16 250 50 0 empty empty empty 0 -8 0 10 #fcfcfc #000000 #000000;
#X obj 442 686 random 100;
#X floatatom 442 707 5 0 0 0 - - - 0;
#X obj 442 727 < 50;
#X obj 570 586 bng 16 250 50 0 empty empty empty 0 -8 0 10 #fcfcfc #000000 #000000;
#X obj 570 617 random 100;
#X floatatom 570 638 5 0 0 0 - - - 0;
#X obj 570 658 < 50;
#X obj 682 463 bng 16 250 50 0 empty empty empty 0 -8 0 10 #fcfcfc #000000 #000000;
#X obj 682 494 random 100;
#X floatatom 682 515 5 0 0 0 - - - 0;
#X obj 682 535 < 50;
#X obj 621 321 bng 16 250 50 0 empty empty empty 0 -8 0 10 #fcfcfc #000000 #000000;
#X obj 621 352 random 100;
#X floatatom 621 373 5 0 0 0 - - - 0;
#X obj 621 393 < 50;
#X obj 182 496 r socket;
#X obj 307 483 r socket;
#X obj 443 619 r socket;
#X obj 571 550 r socket;
#X obj 683 427 r socket;
#X obj 622 285 r socket;
#X connect 0 0 74 0;
#X connect 0 1 1 0;
#X connect 2 0 0 2;
#X connect 3 0 4 0;
#X connect 3 0 10 0;
#X connect 4 0 5 0;
#X connect 5 0 6 0;
#X connect 6 0 7 0;
#X connect 6 0 14 0;
#X connect 7 0 51 0;
#X connect 8 0 39 0;
#X connect 9 0 4 1;
#X connect 10 0 11 0;
#X connect 11 0 12 0;
#X connect 12 0 6 0;
#X connect 13 0 11 0;
#X connect 14 0 6 1;
#X connect 15 0 16 0;
#X connect 16 0 17 0;
#X connect 16 0 27 0;
#X connect 16 0 28 0;
#X connect 16 0 29 0;
#X connect 16 0 30 0;
#X connect 16 0 31 0;
#X connect 16 0 32 0;
#X connect 16 0 33 0;
#X connect 17 0 18 0;
#X connect 18 0 19 0;
#X connect 20 0 77 0;
#X connect 21 0 34 0;
#X connect 22 0 35 0;
#X connect 23 0 36 0;
#X connect 24 0 76 0;
#X connect 25 0 37 0;
#X connect 26 0 38 0;
#X connect 27 0 20 0;
#X connect 28 0 21 0;
#X connect 29 0 22 0;
#X connect 30 0 23 0;
#X connect 31 0 24 0;
#X connect 32 0 25 0;
#X connect 33 0 26 0;
#X connect 39 0 9 0;
#X connect 40 0 41 0;
#X connect 40 0 45 0;
#X connect 40 0 113 0;
#X connect 41 0 73 0;
#X connect 42 0 43 1;
#X connect 43 0 44 0;
#X connect 43 0 44 1;
#X connect 45 0 72 0;
#X connect 46 0 47 0;
#X connect 47 0 49 0;
#X connect 48 0 49 1;
#X connect 49 0 50 0;
#X connect 51 0 15 0;
#X connect 52 0 54 0;
#X connect 53 0 54 1;
#X connect 54 0 50 0;
#X connect 55 0 57 0;
#X connect 56 0 57 1;
#X connect 57 0 50 0;
#X connect 58 0 60 0;
#X connect 59 0 60 1;
#X connect 60 0 50 0;
#X connect 61 0 63 0;
#X connect 62 0 63 1;
#X connect 63 0 50 0;
#X connect 64 0 66 0;
#X connect 65 0 66 1;
#X connect 66 0 50 0;
#X connect 67 0 52 0;
#X connect 68 0 55 0;
#X connect 69 0 58 0;
#X connect 70 0 61 0;
#X connect 71 0 64 0;
#X connect 72 0 73 0;
#X connect 73 0 42 0;
#X connect 74 0 75 0;
#X connect 74 1 75 1;
#X connect 78 0 88 0;
#X connect 79 0 80 0;
#X connect 80 0 81 0;
#X connect 80 0 81 1;
#X connect 82 0 90 0;
#X connect 83 0 84 0;
#X connect 84 0 85 0;
#X connect 85 0 86 0;
#X connect 86 0 87 0;
#X connect 87 0 89 0;
#X connect 88 0 91 0;
#X connect 89 0 79 0;
#X connect 90 0 78 0;
#X connect 91 0 83 0;
#X connect 92 0 95 0;
#X connect 93 0 40 0;
#X connect 94 0 43 0;
#X connect 95 0 98 0;
#X connect 95 1 96 0;
#X connect 96 0 99 0;
#X connect 97 0 100 0;
#X connect 98 0 102 0;
#X connect 99 0 103 0;
#X connect 100 0 101 0;
#X connect 101 0 92 0;
#X connect 104 0 80 1;
#X connect 105 0 80 1;
#X connect 106 0 3 0;
#X connect 107 0 3 0;
#X connect 108 0 109 0;
#X connect 109 0 110 0;
#X connect 110 0 111 0;
#X connect 111 0 112 0;
#X connect 112 0 94 0;
#X connect 113 0 114 0;
#X connect 114 0 108 0;
#X connect 115 0 97 0;
#X connect 119 0 120 0;
#X connect 120 0 121 0;
#X connect 121 0 48 0;
#X connect 122 0 123 0;
#X connect 125 0 126 0;
#X connect 126 0 127 0;
#X connect 127 0 53 0;
#X connect 129 0 130 0;
#X connect 130 0 131 0;
#X connect 131 0 56 0;
#X connect 133 0 134 0;
#X connect 134 0 135 0;
#X connect 135 0 59 0;
#X connect 137 0 138 0;
#X connect 138 0 139 0;
#X connect 139 0 62 0;
#X connect 141 0 142 0;
#X connect 142 0 143 0;
#X connect 143 0 65 0;
#X connect 144 0 118 0;
#X connect 144 0 119 0;
#X connect 145 0 124 0;
#X connect 145 0 125 0;
#X connect 146 0 128 0;
#X connect 146 0 129 0;
#X connect 147 0 132 0;
#X connect 147 0 133 0;
#X connect 148 0 136 0;
#X connect 148 0 137 0;
#X connect 149 0 140 0;
#X connect 149 0 141 0;
